<?xml version="1.0" encoding="utf-8"?>
<!-- Generator: Adobe Illustrator 19.0.0, SVG Export Plug-In . SVG Version: 6.00 Build 0)  -->
<svg version="1.1" id="Layer_1" xmlns="http://www.w3.org/2000/svg" xmlns:xlink="http://www.w3.org/1999/xlink" x="0px" y="0px"
	 viewBox="0 0 38.6 50.4" enable-background="new 0 0 38.6 50.4" xml:space="preserve">
<g id="XMLID_118_">
	<path id="XMLID_119_" fill="#EAEAEA" stroke="#2BB673" stroke-miterlimit="10" d="M38.6,50.4h-9.9V22.1l-5.7,28.3h-7.6L8.7,22.1
		v28.3H0V0h14.3l5,26.1L23.8,0h14.8V50.4z"/>
</g>
<path id="XMLID_173_" fill="none" stroke="#2BB673" stroke-miterlimit="10" d="M4.2,16.6c1,3.4-1.6,7.6,0.5,10.5
	c1.2,1.8,3.6,2.2,5.8,2.4c3.7,0.4,7.7,0.8,11.2-0.6c3.7-1.5,6.5-4.7,8-8.4s1.9-7.7,1.9-11.7c0-3.6-0.5-7.5-2.9-10.1
	c-2-2.1-4.9-3-7.7-3.6C17.1-5.7,13-6,9.7-4.1C5.3-1.7,3.6,3.8,2.8,8.8c-0.6,3.4-0.9,6.9-1,10.4C1.7,23.4,1.9,27.8,4,31.5
	c3.4,5.8,10.7,8.1,17.4,8.8c2.8,0.3,5.6,0.4,8.2-0.6c2.6-1,4.9-3.2,5.2-6"/>
</svg>
