<?xml version="1.0" encoding="utf-8"?>
<!-- Generator: Adobe Illustrator 19.0.0, SVG Export Plug-In . SVG Version: 6.00 Build 0)  -->
<svg version="1.1" x="0px" y="0px" viewBox="0 0 160.5 54" xml:space="preserve">
<g id="XMLID_5_">
	<path id="XMLID_6_" d="M1.1,54C0.4,54,0,53.5,0,52.6V41.8c0-0.5,0.4-1.4,1.8-1.4h15.6V13.6h-16c-0.6,0-1.4-0.2-1.4-1.3V1.1
		C0.1,0.4,0.6,0,1.7,0h70.4c1.4,0,2,0.7,2.6,1.2l8,10.9l7-11.1C90.2,0.5,90.8,0,91.9,0h66.8c0.9,0,1.2,0.5,1.2,1.2v11.4
		c0,0.7-0.5,0.9-1.2,0.9h-15.6v26.8h15.9c0.7,0,1.4,0.4,1.4,1.7v10.9c0,0.7-0.7,1.1-1.8,1.1h-68c-0.7,0-1.4-0.4-1.4-1.2V41.3
		c0-0.6,0.7-0.9,1.4-0.9h15.8V12.5h-0.2L76.6,53.1c-0.5,0.5-1.2,0.9-2.2,0.9h-6.8c-0.7,0-1.4-0.1-1.9-1.1L37.4,13.2h-0.1v27.1h15.6
		c0.9,0,1.2,0.4,1.2,1.3v11.4c0,0.7-1.1,0.9-1.9,0.9H1.1z"/>
</g>
</svg>

<svg version="1.1" viewBox="0 0 160.5 54" x="0px" y="0px">
  <path d="M1.1,54C0.4,54,0,53.5,0,52.6V41.8c0-0.5,0.4-1.4,1.8-1.4h15.6V13.6h-16c-0.6,0-1.4-0.2-1.4-1.3V1.1
    C0.1,0.4,0.6,0,1.7,0h70.4c1.4,0,2,0.7,2.6,1.2l8,10.9l7-11.1C90.2,0.5,90.8,0,91.9,0h66.8c0.9,0,1.2,0.5,1.2,1.2v11.4
    c0,0.7-0.5,0.9-1.2,0.9h-15.6v26.8h15.9c0.7,0,1.4,0.4,1.4,1.7v10.9c0,0.7-0.7,1.1-1.8,1.1h-68c-0.7,0-1.4-0.4-1.4-1.2V41.3
    c0-0.6,0.7-0.9,1.4-0.9h15.8V12.5h-0.2L76.6,53.1c-0.5,0.5-1.2,0.9-2.2,0.9h-6.8c-0.7,0-1.4-0.1-1.9-1.1L37.4,13.2h-0.1v27.1h15.6
    c0.9,0,1.2,0.4,1.2,1.3v11.4c0,0.7-1.1,0.9-1.9,0.9H1.1z"/>
</svg>
